<svg width="468" height="380" viewBox="0 0 468 380" fill="none" xmlns="http://www.w3.org/2000/svg">
<rect x="0.522659" y="0.522659" width="466.955" height="378.955" rx="15.1571" fill="#010409"/>
<rect x="0.522659" y="0.522659" width="466.955" height="378.955" rx="15.1571" stroke="#2E4051" stroke-width="1.04532"/>
<path d="M81.2838 43.4853H72.0036C71.8799 42.5326 71.6263 41.6726 71.2427 40.9054C70.8591 40.1383 70.3518 39.4825 69.7207 38.938C69.0897 38.3936 68.3411 37.9791 67.4749 37.6945C66.6212 37.3975 65.6746 37.2491 64.6352 37.2491C62.7915 37.2491 61.2015 37.7007 59.8652 38.604C58.5412 39.5072 57.5204 40.8126 56.8027 42.5202C56.0975 44.2277 55.7448 46.2941 55.7448 48.7193C55.7448 51.2435 56.1036 53.3594 56.8213 55.067C57.5513 56.7621 58.5722 58.0428 59.8838 58.9089C61.2077 59.7627 62.773 60.1896 64.5795 60.1896C65.5941 60.1896 66.516 60.0597 67.345 59.7998C68.1864 59.54 68.9226 59.1626 69.5537 58.6677C70.1971 58.1603 70.723 57.5479 71.1313 56.8302C71.552 56.1001 71.8428 55.2773 72.0036 54.3617L81.2838 54.4173C81.123 56.1001 80.6342 57.7582 79.8175 59.3915C79.0133 61.0248 77.9058 62.5158 76.4952 63.8646C75.0847 65.2009 73.3647 66.265 71.3355 67.0569C69.3186 67.8488 67.0047 68.2448 64.3939 68.2448C60.9541 68.2448 57.8731 67.49 55.1509 65.9804C52.4411 64.4585 50.3004 62.2436 48.729 59.3358C47.1576 56.428 46.3718 52.8892 46.3718 48.7193C46.3718 44.5371 47.1699 40.992 48.7661 38.0843C50.3623 35.1765 52.5215 32.9678 55.2437 31.4582C57.9659 29.9487 61.0159 29.1939 64.3939 29.1939C66.6954 29.1939 68.8236 29.5156 70.7787 30.159C72.7337 30.7901 74.4536 31.7181 75.9384 32.9431C77.4233 34.1557 78.6297 35.6467 79.5577 37.4161C80.4857 39.1855 81.0611 41.2086 81.2838 43.4853ZM95.617 29.7136V67.7251H86.541V29.7136H95.617ZM109.431 68.2077C107.612 68.2077 105.997 67.9045 104.586 67.2982C103.188 66.6795 102.081 65.7515 101.264 64.5142C100.46 63.2644 100.058 61.6992 100.058 59.8184C100.058 58.2346 100.336 56.8982 100.893 55.8094C101.45 54.7205 102.217 53.8358 103.194 53.1552C104.172 52.4747 105.298 51.9612 106.572 51.6147C107.847 51.2559 109.208 51.0146 110.656 50.8909C112.276 50.7424 113.582 50.5877 114.572 50.4269C115.562 50.2536 116.279 50.0124 116.725 49.703C117.183 49.3813 117.411 48.9297 117.411 48.3481V48.2553C117.411 47.3026 117.084 46.5663 116.428 46.0466C115.772 45.527 114.887 45.2671 113.774 45.2671C112.573 45.2671 111.608 45.527 110.878 46.0466C110.148 46.5663 109.684 47.284 109.486 48.1996L101.116 47.9027C101.363 46.1704 102 44.6237 103.027 43.2626C104.067 41.8891 105.49 40.8126 107.296 40.0331C109.115 39.2412 111.299 38.8452 113.848 38.8452C115.667 38.8452 117.343 39.0618 118.878 39.4948C120.412 39.9155 121.748 40.5342 122.887 41.3509C124.025 42.1552 124.904 43.145 125.522 44.3205C126.153 45.496 126.469 46.8386 126.469 48.3481V67.7251H117.931V63.7532H117.708C117.201 64.7183 116.552 65.535 115.76 66.2032C114.98 66.8713 114.058 67.3725 112.994 67.7065C111.942 68.0406 110.754 68.2077 109.431 68.2077ZM112.233 62.2684C113.211 62.2684 114.089 62.0704 114.869 61.6744C115.661 61.2785 116.292 60.734 116.762 60.0411C117.232 59.3358 117.467 58.5192 117.467 57.5912V54.8814C117.207 55.0175 116.892 55.1412 116.521 55.2526C116.162 55.3639 115.766 55.4691 115.333 55.5681C114.9 55.6671 114.454 55.7537 113.996 55.8279C113.539 55.9022 113.099 55.9702 112.679 56.0321C111.825 56.1682 111.095 56.3786 110.488 56.6631C109.895 56.9477 109.437 57.3189 109.115 57.7768C108.806 58.2222 108.651 58.7543 108.651 59.373C108.651 60.3133 108.985 61.031 109.653 61.526C110.334 62.0209 111.194 62.2684 112.233 62.2684ZM156.908 47.9212L148.574 48.144C148.488 47.55 148.253 47.0242 147.869 46.5663C147.485 46.0961 146.984 45.7311 146.366 45.4713C145.759 45.1991 145.054 45.0629 144.25 45.0629C143.198 45.0629 142.301 45.2733 141.558 45.694C140.828 46.1147 140.47 46.6839 140.482 47.4015C140.47 47.9584 140.692 48.4409 141.15 48.8493C141.62 49.2576 142.456 49.5855 143.656 49.8329L149.15 50.8723C151.996 51.4168 154.111 52.32 155.497 53.5821C156.895 54.8442 157.601 56.5147 157.613 58.5934C157.601 60.5484 157.019 62.2498 155.868 63.6975C154.73 65.1452 153.171 66.2712 151.191 67.0755C149.211 67.8674 146.947 68.2633 144.398 68.2633C140.327 68.2633 137.116 67.4281 134.765 65.7577C132.427 64.0749 131.09 61.8229 130.756 59.0017L139.721 58.779C139.919 59.8184 140.432 60.6103 141.261 61.1547C142.091 61.6992 143.148 61.9714 144.435 61.9714C145.598 61.9714 146.545 61.7549 147.275 61.3218C148.005 60.8887 148.376 60.3133 148.389 59.5957C148.376 58.9523 148.092 58.4388 147.535 58.0552C146.978 57.6592 146.106 57.3499 144.918 57.1272L139.944 56.1806C137.085 55.6609 134.957 54.7019 133.559 53.3037C132.161 51.8931 131.468 50.099 131.48 47.9212C131.468 46.0157 131.975 44.3886 133.002 43.0399C134.029 41.6788 135.489 40.6394 137.382 39.9217C139.276 39.2041 141.509 38.8452 144.083 38.8452C147.943 38.8452 150.987 39.6557 153.214 41.2766C155.442 42.8852 156.673 45.1001 156.908 47.9212ZM186.971 47.9212L178.637 48.144C178.551 47.55 178.316 47.0242 177.932 46.5663C177.548 46.0961 177.047 45.7311 176.429 45.4713C175.822 45.1991 175.117 45.0629 174.313 45.0629C173.261 45.0629 172.364 45.2733 171.622 45.694C170.891 46.1147 170.533 46.6839 170.545 47.4015C170.533 47.9584 170.755 48.4409 171.213 48.8493C171.683 49.2576 172.519 49.5855 173.719 49.8329L179.213 50.8723C182.059 51.4168 184.174 52.32 185.56 53.5821C186.959 54.8442 187.664 56.5147 187.676 58.5934C187.664 60.5484 187.082 62.2498 185.932 63.6975C184.793 65.1452 183.234 66.2712 181.254 67.0755C179.275 67.8674 177.01 68.2633 174.461 68.2633C170.39 68.2633 167.179 67.4281 164.828 65.7577C162.49 64.0749 161.153 61.8229 160.819 59.0017L169.784 58.779C169.982 59.8184 170.496 60.6103 171.325 61.1547C172.154 61.6992 173.212 61.9714 174.498 61.9714C175.661 61.9714 176.608 61.7549 177.338 61.3218C178.068 60.8887 178.439 60.3133 178.452 59.5957C178.439 58.9523 178.155 58.4388 177.598 58.0552C177.041 57.6592 176.169 57.3499 174.981 57.1272L170.007 56.1806C167.148 55.6609 165.02 54.7019 163.622 53.3037C162.224 51.8931 161.531 50.099 161.543 47.9212C161.531 46.0157 162.038 44.3886 163.065 43.0399C164.092 41.6788 165.552 40.6394 167.445 39.9217C169.339 39.2041 171.572 38.8452 174.146 38.8452C178.006 38.8452 181.05 39.6557 183.277 41.2766C185.505 42.8852 186.736 45.1001 186.971 47.9212Z" fill="white"/>
<rect x="44.3555" y="102.356" width="379.289" height="233.289" rx="10.3102" fill="#010409"/>
<rect x="44.3555" y="102.356" width="379.289" height="233.289" rx="10.3102" stroke="#2E4051" stroke-width="0.711048"/>
<path d="M119.43 152.088V123.129H139.197V128.813H126.429V134.752H137.939V140.451H126.429V152.088H119.43ZM142.722 152.088V130.369H149.636V152.088H142.722ZM146.186 127.838C145.215 127.838 144.381 127.517 143.683 126.876C142.986 126.226 142.637 125.443 142.637 124.529C142.637 123.624 142.986 122.851 143.683 122.21C144.381 121.559 145.215 121.234 146.186 121.234C147.167 121.234 148.001 121.559 148.689 122.21C149.387 122.851 149.735 123.624 149.735 124.529C149.735 125.443 149.387 126.226 148.689 126.876C148.001 127.517 147.167 127.838 146.186 127.838ZM160.952 123.129V152.088H154.038V123.129H160.952ZM177.613 130.369V135.459H163.911V130.369H177.613ZM166.781 125.165H173.696V145.258C173.696 145.682 173.762 146.026 173.894 146.29C174.035 146.545 174.238 146.729 174.502 146.842C174.766 146.946 175.082 146.997 175.449 146.997C175.713 146.997 175.991 146.974 176.284 146.927C176.585 146.87 176.811 146.823 176.962 146.785L178.009 151.777C177.679 151.871 177.212 151.989 176.609 152.13C176.015 152.272 175.303 152.361 174.474 152.399C172.852 152.474 171.462 152.286 170.302 151.833C169.152 151.371 168.271 150.655 167.658 149.684C167.055 148.713 166.763 147.492 166.781 146.022V125.165ZM191.06 152.498C188.788 152.498 186.827 152.05 185.178 151.155C183.537 150.25 182.274 148.963 181.388 147.294C180.511 145.616 180.073 143.623 180.073 141.313C180.073 139.07 180.516 137.109 181.402 135.431C182.288 133.743 183.537 132.433 185.149 131.5C186.761 130.557 188.661 130.086 190.848 130.086C192.394 130.086 193.808 130.326 195.09 130.807C196.372 131.288 197.48 131.999 198.413 132.942C199.346 133.885 200.072 135.049 200.59 136.435C201.109 137.811 201.368 139.39 201.368 141.172V142.897H182.491V138.881H194.934C194.925 138.146 194.751 137.491 194.411 136.915C194.072 136.34 193.605 135.893 193.011 135.572C192.427 135.242 191.753 135.077 190.989 135.077C190.216 135.077 189.523 135.252 188.911 135.6C188.298 135.94 187.813 136.406 187.454 137C187.096 137.585 186.908 138.249 186.889 138.994V143.081C186.889 143.967 187.063 144.744 187.412 145.414C187.761 146.074 188.256 146.587 188.897 146.955C189.538 147.323 190.301 147.506 191.187 147.506C191.8 147.506 192.356 147.422 192.856 147.252C193.355 147.082 193.784 146.832 194.143 146.503C194.501 146.173 194.769 145.767 194.949 145.286L201.298 145.47C201.034 146.894 200.454 148.133 199.558 149.189C198.672 150.236 197.508 151.051 196.066 151.635C194.623 152.21 192.955 152.498 191.06 152.498ZM204.9 152.088V130.369H211.616V134.328H211.843C212.238 132.895 212.884 131.83 213.78 131.132C214.675 130.425 215.717 130.072 216.905 130.072C217.225 130.072 217.555 130.095 217.895 130.142C218.234 130.18 218.55 130.241 218.842 130.326V136.336C218.512 136.223 218.078 136.133 217.541 136.067C217.013 136.001 216.542 135.968 216.127 135.968C215.307 135.968 214.567 136.152 213.907 136.52C213.257 136.878 212.743 137.382 212.366 138.033C211.998 138.674 211.814 139.428 211.814 140.295V152.088H204.9Z" fill="white"/>
<path d="M83.0186 129.375L97.4618 129.375M83.0186 129.375C83.0186 130.602 82.0238 131.597 80.7966 131.597C79.5694 131.597 78.5746 130.602 78.5746 129.375M83.0186 129.375C83.0186 128.148 82.0238 127.153 80.7966 127.153C79.5694 127.153 78.5746 128.148 78.5746 129.375M73.0195 129.375H78.5746M83.0186 147.151H97.4618M83.0186 147.151C83.0186 148.379 82.0238 149.373 80.7966 149.373C79.5694 149.373 78.5746 148.379 78.5746 147.151M83.0186 147.151C83.0186 145.924 82.0238 144.929 80.7966 144.929C79.5694 144.929 78.5746 145.924 78.5746 147.151M73.0195 147.151L78.5746 147.151M91.9067 138.263L97.4618 138.263M91.9067 138.263C91.9067 139.491 90.9119 140.485 89.6847 140.485C88.4575 140.485 87.4627 139.491 87.4627 138.263M91.9067 138.263C91.9067 137.036 90.9119 136.041 89.6847 136.041C88.4575 136.041 87.4627 137.036 87.4627 138.263M73.0195 138.263H87.4627" stroke="white" stroke-width="2.13314" stroke-linecap="round" stroke-linejoin="round"/>
<rect x="69.5972" y="183.771" width="327.793" height="31.9972" rx="15.9986" fill="#2E4051"/>
<rect x="69.5972" y="183.771" width="327.793" height="31.9972" rx="15.9986" fill="#2E4051"/>
<rect x="69.5972" y="230.7" width="327.793" height="31.9972" rx="15.9986" fill="#2E4051"/>
<rect x="69.5972" y="277.629" width="327.793" height="31.9972" rx="15.9986" fill="#2E4051"/>
</svg>
