<svg width="892" height="380" viewBox="0 0 892 380" fill="none" xmlns="http://www.w3.org/2000/svg">
<rect x="0.522659" y="0.522659" width="890.955" height="378.955" rx="15.1571" fill="#010409"/>
<rect x="0.522659" y="0.522659" width="890.955" height="378.955" rx="15.1571" stroke="#2E4051" stroke-width="1.04532"/>
<path d="M81.2838 43.4853H72.0036C71.8799 42.5325 71.6263 41.6725 71.2427 40.9054C70.8591 40.1382 70.3518 39.4824 69.7207 38.938C69.0897 38.3935 68.3411 37.979 67.4749 37.6944C66.6212 37.3975 65.6746 37.249 64.6352 37.249C62.7915 37.249 61.2015 37.7006 59.8652 38.6039C58.5412 39.5072 57.5204 40.8126 56.8027 42.5201C56.0975 44.2277 55.7448 46.2941 55.7448 48.7193C55.7448 51.2435 56.1036 53.3593 56.8213 55.0669C57.5513 56.7621 58.5722 58.0427 59.8838 58.9089C61.2077 59.7627 62.773 60.1895 64.5795 60.1895C65.5941 60.1895 66.516 60.0596 67.345 59.7998C68.1864 59.5399 68.9226 59.1625 69.5537 58.6676C70.1971 58.1603 70.723 57.5478 71.1313 56.8301C71.552 56.1001 71.8428 55.2772 72.0036 54.3616L81.2838 54.4173C81.123 56.1001 80.6342 57.7581 79.8175 59.3915C79.0133 61.0248 77.9058 62.5158 76.4952 63.8645C75.0847 65.2008 73.3647 66.265 71.3355 67.0569C69.3186 67.8488 67.0047 68.2447 64.3939 68.2447C60.9541 68.2447 57.8731 67.4899 55.1509 65.9804C52.4411 64.4584 50.3004 62.2436 48.729 59.3358C47.1576 56.428 46.3718 52.8892 46.3718 48.7193C46.3718 44.537 47.1699 40.992 48.7661 38.0842C50.3623 35.1764 52.5215 32.9677 55.2437 31.4582C57.9659 29.9486 61.0159 29.1938 64.3939 29.1938C66.6954 29.1938 68.8236 29.5155 70.7787 30.1589C72.7337 30.79 74.4536 31.718 75.9384 32.943C77.4233 34.1556 78.6297 35.6466 79.5577 37.416C80.4857 39.1855 81.0611 41.2085 81.2838 43.4853ZM95.617 29.7135V67.725H86.541V29.7135H95.617ZM109.431 68.2076C107.612 68.2076 105.997 67.9045 104.586 67.2981C103.188 66.6795 102.081 65.7515 101.264 64.5141C100.46 63.2644 100.058 61.6991 100.058 59.8183C100.058 58.2345 100.336 56.8982 100.893 55.8093C101.45 54.7204 102.217 53.8357 103.194 53.1552C104.172 52.4746 105.298 51.9611 106.572 51.6147C107.847 51.2558 109.208 51.0146 110.656 50.8908C112.276 50.7423 113.582 50.5877 114.572 50.4268C115.562 50.2536 116.279 50.0123 116.725 49.703C117.183 49.3813 117.411 48.9296 117.411 48.3481V48.2553C117.411 47.3025 117.084 46.5663 116.428 46.0466C115.772 45.5269 114.887 45.267 113.774 45.267C112.573 45.267 111.608 45.5269 110.878 46.0466C110.148 46.5663 109.684 47.2839 109.486 48.1996L101.116 47.9026C101.363 46.1703 102 44.6236 103.027 43.2625C104.067 41.8891 105.49 40.8126 107.296 40.033C109.115 39.2411 111.299 38.8452 113.848 38.8452C115.667 38.8452 117.343 39.0617 118.878 39.4948C120.412 39.9155 121.748 40.5342 122.887 41.3508C124.025 42.1551 124.904 43.145 125.522 44.3205C126.153 45.496 126.469 46.8385 126.469 48.3481V67.725H117.931V63.7531H117.708C117.201 64.7183 116.552 65.5349 115.76 66.2031C114.98 66.8713 114.058 67.3724 112.994 67.7065C111.942 68.0406 110.754 68.2076 109.431 68.2076ZM112.233 62.2683C113.211 62.2683 114.089 62.0703 114.869 61.6744C115.661 61.2784 116.292 60.734 116.762 60.0411C117.232 59.3358 117.467 58.5191 117.467 57.5911V54.8813C117.207 55.0174 116.892 55.1411 116.521 55.2525C116.162 55.3639 115.766 55.469 115.333 55.568C114.9 55.667 114.454 55.7536 113.996 55.8279C113.539 55.9021 113.099 55.9702 112.679 56.032C111.825 56.1681 111.095 56.3785 110.488 56.6631C109.895 56.9477 109.437 57.3189 109.115 57.7767C108.806 58.2222 108.651 58.7542 108.651 59.3729C108.651 60.3133 108.985 61.0309 109.653 61.5259C110.334 62.0208 111.194 62.2683 112.233 62.2683ZM156.908 47.9212L148.574 48.1439C148.488 47.55 148.253 47.0241 147.869 46.5663C147.485 46.0961 146.984 45.7311 146.366 45.4712C145.759 45.199 145.054 45.0629 144.25 45.0629C143.198 45.0629 142.301 45.2732 141.558 45.6939C140.828 46.1146 140.47 46.6838 140.482 47.4015C140.47 47.9583 140.692 48.4409 141.15 48.8492C141.62 49.2575 142.456 49.5854 143.656 49.8329L149.15 50.8723C151.996 51.4167 154.111 52.32 155.497 53.5821C156.895 54.8442 157.601 56.5146 157.613 58.5934C157.601 60.5484 157.019 62.2497 155.868 63.6974C154.73 65.1452 153.171 66.2711 151.191 67.0754C149.211 67.8673 146.947 68.2633 144.398 68.2633C140.327 68.2633 137.116 67.4281 134.765 65.7576C132.427 64.0748 131.09 61.8229 130.756 59.0017L139.721 58.779C139.919 59.8183 140.432 60.6102 141.261 61.1547C142.091 61.6991 143.148 61.9713 144.435 61.9713C145.598 61.9713 146.545 61.7548 147.275 61.3217C148.005 60.8887 148.376 60.3133 148.389 59.5956C148.376 58.9522 148.092 58.4387 147.535 58.0551C146.978 57.6592 146.106 57.3498 144.918 57.1271L139.944 56.1805C137.085 55.6608 134.957 54.7019 133.559 53.3037C132.161 51.8931 131.468 50.0989 131.48 47.9212C131.468 46.0156 131.975 44.3885 133.002 43.0398C134.029 41.6787 135.489 40.6393 137.382 39.9217C139.276 39.204 141.509 38.8452 144.083 38.8452C147.943 38.8452 150.987 39.6556 153.214 41.2766C155.442 42.8851 156.673 45.1 156.908 47.9212ZM186.971 47.9212L178.637 48.1439C178.551 47.55 178.316 47.0241 177.932 46.5663C177.548 46.0961 177.047 45.7311 176.429 45.4712C175.822 45.199 175.117 45.0629 174.313 45.0629C173.261 45.0629 172.364 45.2732 171.622 45.6939C170.891 46.1146 170.533 46.6838 170.545 47.4015C170.533 47.9583 170.755 48.4409 171.213 48.8492C171.683 49.2575 172.519 49.5854 173.719 49.8329L179.213 50.8723C182.059 51.4167 184.174 52.32 185.56 53.5821C186.959 54.8442 187.664 56.5146 187.676 58.5934C187.664 60.5484 187.082 62.2497 185.932 63.6974C184.793 65.1452 183.234 66.2711 181.254 67.0754C179.275 67.8673 177.01 68.2633 174.461 68.2633C170.39 68.2633 167.179 67.4281 164.828 65.7576C162.49 64.0748 161.153 61.8229 160.819 59.0017L169.784 58.779C169.982 59.8183 170.496 60.6102 171.325 61.1547C172.154 61.6991 173.212 61.9713 174.498 61.9713C175.661 61.9713 176.608 61.7548 177.338 61.3217C178.068 60.8887 178.439 60.3133 178.452 59.5956C178.439 58.9522 178.155 58.4387 177.598 58.0551C177.041 57.6592 176.169 57.3498 174.981 57.1271L170.007 56.1805C167.148 55.6608 165.02 54.7019 163.622 53.3037C162.224 51.8931 161.531 50.0989 161.543 47.9212C161.531 46.0156 162.038 44.3885 163.065 43.0398C164.092 41.6787 165.552 40.6393 167.445 39.9217C169.339 39.204 171.572 38.8452 174.146 38.8452C178.006 38.8452 181.05 39.6556 183.277 41.2766C185.505 42.8851 186.736 45.1 186.971 47.9212Z" fill="white"/>
<rect x="44.3555" y="102.356" width="379.289" height="233.289" rx="10.3102" fill="#010409"/>
<rect x="44.3555" y="102.356" width="379.289" height="233.289" rx="10.3102" stroke="#2E4051" stroke-width="0.711048"/>
<path d="M119.43 152.088V123.129H139.197V128.813H126.429V134.752H137.939V140.451H126.429V152.088H119.43ZM142.722 152.088V130.369H149.636V152.088H142.722ZM146.186 127.838C145.215 127.838 144.381 127.517 143.683 126.876C142.986 126.226 142.637 125.443 142.637 124.529C142.637 123.624 142.986 122.851 143.683 122.21C144.381 121.559 145.215 121.234 146.186 121.234C147.167 121.234 148.001 121.559 148.689 122.21C149.387 122.851 149.735 123.624 149.735 124.529C149.735 125.443 149.387 126.226 148.689 126.876C148.001 127.517 147.167 127.838 146.186 127.838ZM160.952 123.129V152.088H154.038V123.129H160.952ZM177.613 130.369V135.459H163.911V130.369H177.613ZM166.781 125.165H173.696V145.258C173.696 145.682 173.762 146.026 173.894 146.29C174.035 146.545 174.238 146.729 174.502 146.842C174.766 146.946 175.082 146.997 175.449 146.997C175.713 146.997 175.991 146.974 176.284 146.927C176.585 146.87 176.811 146.823 176.962 146.785L178.009 151.777C177.679 151.871 177.212 151.989 176.609 152.13C176.015 152.272 175.303 152.361 174.474 152.399C172.852 152.474 171.462 152.286 170.302 151.833C169.152 151.371 168.271 150.655 167.658 149.684C167.055 148.713 166.763 147.492 166.781 146.022V125.165ZM191.06 152.498C188.788 152.498 186.827 152.05 185.178 151.155C183.537 150.25 182.274 148.963 181.388 147.294C180.511 145.616 180.073 143.623 180.073 141.313C180.073 139.07 180.516 137.109 181.402 135.431C182.288 133.743 183.537 132.433 185.149 131.5C186.761 130.557 188.661 130.086 190.848 130.086C192.394 130.086 193.808 130.326 195.09 130.807C196.372 131.288 197.48 131.999 198.413 132.942C199.346 133.885 200.072 135.049 200.59 136.435C201.109 137.811 201.368 139.39 201.368 141.172V142.897H182.491V138.881H194.934C194.925 138.146 194.751 137.491 194.411 136.915C194.072 136.34 193.605 135.893 193.011 135.572C192.427 135.242 191.753 135.077 190.989 135.077C190.216 135.077 189.523 135.252 188.911 135.6C188.298 135.94 187.813 136.406 187.454 137C187.096 137.585 186.908 138.249 186.889 138.994V143.081C186.889 143.967 187.063 144.744 187.412 145.414C187.761 146.074 188.256 146.587 188.897 146.955C189.538 147.323 190.301 147.506 191.187 147.506C191.8 147.506 192.356 147.422 192.856 147.252C193.355 147.082 193.784 146.832 194.143 146.503C194.501 146.173 194.769 145.767 194.949 145.286L201.298 145.47C201.034 146.894 200.454 148.133 199.558 149.189C198.672 150.236 197.508 151.051 196.066 151.635C194.623 152.21 192.955 152.498 191.06 152.498ZM204.9 152.088V130.369H211.616V134.328H211.843C212.238 132.895 212.884 131.83 213.78 131.132C214.675 130.425 215.717 130.072 216.905 130.072C217.225 130.072 217.555 130.095 217.895 130.142C218.234 130.18 218.55 130.241 218.842 130.326V136.336C218.512 136.223 218.078 136.133 217.541 136.067C217.013 136.001 216.542 135.968 216.127 135.968C215.307 135.968 214.567 136.152 213.907 136.52C213.257 136.878 212.743 137.382 212.366 138.033C211.998 138.674 211.814 139.428 211.814 140.295V152.088H204.9Z" fill="white"/>
<path d="M83.0186 129.375L97.4618 129.375M83.0186 129.375C83.0186 130.602 82.0238 131.597 80.7966 131.597C79.5694 131.597 78.5746 130.602 78.5746 129.375M83.0186 129.375C83.0186 128.148 82.0238 127.153 80.7966 127.153C79.5694 127.153 78.5746 128.148 78.5746 129.375M73.0195 129.375H78.5746M83.0186 147.151H97.4618M83.0186 147.151C83.0186 148.379 82.0238 149.373 80.7966 149.373C79.5694 149.373 78.5746 148.379 78.5746 147.151M83.0186 147.151C83.0186 145.924 82.0238 144.929 80.7966 144.929C79.5694 144.929 78.5746 145.924 78.5746 147.151M73.0195 147.151L78.5746 147.151M91.9067 138.263L97.4618 138.263M91.9067 138.263C91.9067 139.491 90.9119 140.485 89.6847 140.485C88.4575 140.485 87.4627 139.491 87.4627 138.263M91.9067 138.263C91.9067 137.036 90.9119 136.041 89.6847 136.041C88.4575 136.041 87.4627 137.036 87.4627 138.263M73.0195 138.263H87.4627" stroke="white" stroke-width="2.13314" stroke-linecap="round" stroke-linejoin="round"/>
<rect x="69.5972" y="183.771" width="327.793" height="31.9972" rx="15.9986" fill="#2E4051"/>
<rect x="69.5972" y="183.771" width="327.793" height="31.9972" rx="15.9986" fill="#2E4051"/>
<rect x="69.5972" y="230.7" width="327.793" height="31.9972" rx="15.9986" fill="#2E4051"/>
<rect x="69.5972" y="277.629" width="327.793" height="31.9972" rx="15.9986" fill="#2E4051"/>
<rect x="468.356" y="102.356" width="379.289" height="233.289" rx="10.3102" fill="#010409"/>
<rect x="468.356" y="102.356" width="379.289" height="233.289" rx="10.3102" stroke="#2E4051" stroke-width="0.711048"/>
<path d="M543.43 152.088V123.129H563.197V128.813H550.429V134.752H561.939V140.451H550.429V152.088H543.43ZM566.722 152.088V130.369H573.636V152.088H566.722ZM570.186 127.838C569.215 127.838 568.381 127.517 567.683 126.876C566.986 126.226 566.637 125.443 566.637 124.529C566.637 123.624 566.986 122.851 567.683 122.21C568.381 121.559 569.215 121.234 570.186 121.234C571.167 121.234 572.001 121.559 572.689 122.21C573.387 122.851 573.735 123.624 573.735 124.529C573.735 125.443 573.387 126.226 572.689 126.876C572.001 127.517 571.167 127.838 570.186 127.838ZM584.952 123.129V152.088H578.038V123.129H584.952ZM601.613 130.369V135.459H587.911V130.369H601.613ZM590.781 125.165H597.696V145.258C597.696 145.682 597.762 146.026 597.894 146.29C598.035 146.545 598.238 146.729 598.502 146.842C598.766 146.946 599.082 146.997 599.449 146.997C599.713 146.997 599.991 146.974 600.284 146.927C600.585 146.87 600.811 146.823 600.962 146.785L602.009 151.777C601.679 151.871 601.212 151.989 600.609 152.13C600.015 152.272 599.303 152.361 598.474 152.399C596.852 152.474 595.462 152.286 594.302 151.833C593.152 151.371 592.271 150.655 591.658 149.684C591.055 148.713 590.763 147.492 590.781 146.022V125.165ZM615.06 152.498C612.788 152.498 610.827 152.05 609.178 151.155C607.537 150.25 606.274 148.963 605.388 147.294C604.511 145.616 604.073 143.623 604.073 141.313C604.073 139.07 604.516 137.109 605.402 135.431C606.288 133.743 607.537 132.433 609.149 131.5C610.761 130.557 612.661 130.086 614.848 130.086C616.394 130.086 617.808 130.326 619.09 130.807C620.372 131.288 621.48 131.999 622.413 132.942C623.346 133.885 624.072 135.049 624.59 136.435C625.109 137.811 625.368 139.39 625.368 141.172V142.897H606.491V138.881H618.934C618.925 138.146 618.751 137.491 618.411 136.915C618.072 136.34 617.605 135.893 617.011 135.572C616.427 135.242 615.753 135.077 614.989 135.077C614.216 135.077 613.523 135.252 612.911 135.6C612.298 135.94 611.813 136.406 611.454 137C611.096 137.585 610.908 138.249 610.889 138.994V143.081C610.889 143.967 611.063 144.744 611.412 145.414C611.761 146.074 612.256 146.587 612.897 146.955C613.538 147.323 614.301 147.506 615.187 147.506C615.8 147.506 616.356 147.422 616.856 147.252C617.355 147.082 617.784 146.832 618.143 146.503C618.501 146.173 618.769 145.767 618.949 145.286L625.298 145.47C625.034 146.894 624.454 148.133 623.558 149.189C622.672 150.236 621.508 151.051 620.066 151.635C618.623 152.21 616.955 152.498 615.06 152.498ZM628.9 152.088V130.369H635.616V134.328H635.843C636.238 132.895 636.884 131.83 637.78 131.132C638.675 130.425 639.717 130.072 640.905 130.072C641.225 130.072 641.555 130.095 641.895 130.142C642.234 130.18 642.55 130.241 642.842 130.326V136.336C642.512 136.223 642.078 136.133 641.541 136.067C641.013 136.001 640.542 135.968 640.127 135.968C639.307 135.968 638.567 136.152 637.907 136.52C637.257 136.878 636.743 137.382 636.366 138.033C635.998 138.674 635.814 139.428 635.814 140.295V152.088H628.9Z" fill="white"/>
<path d="M507.019 129.375L521.462 129.375M507.019 129.375C507.019 130.602 506.024 131.597 504.797 131.597C503.569 131.597 502.575 130.602 502.575 129.375M507.019 129.375C507.019 128.148 506.024 127.153 504.797 127.153C503.569 127.153 502.575 128.148 502.575 129.375M497.02 129.375H502.575M507.019 147.151H521.462M507.019 147.151C507.019 148.379 506.024 149.373 504.797 149.373C503.569 149.373 502.575 148.379 502.575 147.151M507.019 147.151C507.019 145.924 506.024 144.929 504.797 144.929C503.569 144.929 502.575 145.924 502.575 147.151M497.02 147.151L502.575 147.151M515.907 138.263L521.462 138.263M515.907 138.263C515.907 139.491 514.912 140.485 513.685 140.485C512.458 140.485 511.463 139.491 511.463 138.263M515.907 138.263C515.907 137.036 514.912 136.041 513.685 136.041C512.458 136.041 511.463 137.036 511.463 138.263M497.02 138.263H511.463" stroke="white" stroke-width="2.13314" stroke-linecap="round" stroke-linejoin="round"/>
<rect x="493.597" y="183.771" width="327.793" height="31.9972" rx="15.9986" fill="#2E4051"/>
<rect x="493.597" y="183.771" width="327.793" height="31.9972" rx="15.9986" fill="#2E4051"/>
<rect x="493.597" y="230.7" width="327.793" height="31.9972" rx="15.9986" fill="#2E4051"/>
<rect x="493.597" y="277.629" width="327.793" height="31.9972" rx="15.9986" fill="#2E4051"/>
</svg>
